<mxfile host="app.diagrams.net" agent="Mozilla/5.0 (Windows NT 10.0; Win64; x64) AppleWebKit/537.36 (KHTML, like Gecko) Chrome/135.0.0.0 Safari/537.36" version="26.2.4" pages="3">
  <diagram id="C5RBs43oDa-KdzZeNtuy" name="Page-1">
    <mxGraphModel grid="0" page="1" gridSize="10" guides="1" tooltips="1" connect="1" arrows="1" fold="1" pageScale="1" pageWidth="827" pageHeight="1169" math="0" shadow="0">
      <root>
        <mxCell id="WIyWlLk6GJQsqaUBKTNV-0" />
        <mxCell id="WIyWlLk6GJQsqaUBKTNV-1" parent="WIyWlLk6GJQsqaUBKTNV-0" />
        <mxCell id="rQ5jN7HeV7pxCDGi3HHd-1" style="edgeStyle=orthogonalEdgeStyle;rounded=0;orthogonalLoop=1;jettySize=auto;html=1;exitX=0.5;exitY=1;exitDx=0;exitDy=0;" edge="1" parent="WIyWlLk6GJQsqaUBKTNV-1" source="QaPCqH7PHZVK6sP4nEyc-0" target="rQ5jN7HeV7pxCDGi3HHd-2">
          <mxGeometry relative="1" as="geometry">
            <mxPoint x="169.8572235107422" y="129.85713958740234" as="targetPoint" />
          </mxGeometry>
        </mxCell>
        <mxCell id="QaPCqH7PHZVK6sP4nEyc-0" value="&lt;span id=&quot;docs-internal-guid-9d2fd4d1-7fff-10fc-8e14-6760496dac3f&quot;&gt;&lt;span style=&quot;font-size: 12pt; font-family: &amp;quot;Times New Roman&amp;quot;, serif; background-color: transparent; font-variant-numeric: normal; font-variant-east-asian: normal; font-variant-alternates: normal; font-variant-position: normal; font-variant-emoji: normal; vertical-align: baseline; white-space-collapse: preserve;&quot;&gt;Add Park to list and View Parks rating&lt;/span&gt;&lt;/span&gt;" style="rounded=0;whiteSpace=wrap;html=1;" vertex="1" parent="WIyWlLk6GJQsqaUBKTNV-1">
          <mxGeometry x="39" y="31" width="273" height="60" as="geometry" />
        </mxCell>
        <mxCell id="QaPCqH7PHZVK6sP4nEyc-1" value="&lt;span id=&quot;docs-internal-guid-9d2fd4d1-7fff-10fc-8e14-6760496dac3f&quot;&gt;&lt;span style=&quot;font-size: 12pt; font-family: &amp;quot;Times New Roman&amp;quot;, serif; background-color: transparent; font-variant-numeric: normal; font-variant-east-asian: normal; font-variant-alternates: normal; font-variant-position: normal; font-variant-emoji: normal; vertical-align: baseline; white-space-collapse: preserve;&quot;&gt;Reset to default rating. / Reset all configuration to default&lt;/span&gt;&lt;/span&gt;" style="rounded=0;whiteSpace=wrap;html=1;" vertex="1" parent="WIyWlLk6GJQsqaUBKTNV-1">
          <mxGeometry x="32" y="1202" width="273" height="60" as="geometry" />
        </mxCell>
        <mxCell id="rQ5jN7HeV7pxCDGi3HHd-12" value="" style="edgeStyle=orthogonalEdgeStyle;rounded=0;orthogonalLoop=1;jettySize=auto;html=1;" edge="1" parent="WIyWlLk6GJQsqaUBKTNV-1" source="QaPCqH7PHZVK6sP4nEyc-2" target="rQ5jN7HeV7pxCDGi3HHd-11">
          <mxGeometry relative="1" as="geometry" />
        </mxCell>
        <mxCell id="QaPCqH7PHZVK6sP4nEyc-2" value="&lt;span id=&quot;docs-internal-guid-9d2fd4d1-7fff-10fc-8e14-6760496dac3f&quot;&gt;&lt;span style=&quot;font-size: 12pt; font-family: &amp;quot;Times New Roman&amp;quot;, serif; background-color: transparent; font-variant-numeric: normal; font-variant-east-asian: normal; font-variant-alternates: normal; font-variant-position: normal; font-variant-emoji: normal; vertical-align: baseline; white-space-collapse: preserve;&quot;&gt;Configure rating thresholds&lt;/span&gt;&lt;/span&gt;" style="rounded=0;whiteSpace=wrap;html=1;" vertex="1" parent="WIyWlLk6GJQsqaUBKTNV-1">
          <mxGeometry x="425" y="31" width="273" height="60" as="geometry" />
        </mxCell>
        <mxCell id="QaPCqH7PHZVK6sP4nEyc-3" value="&lt;span id=&quot;docs-internal-guid-9d2fd4d1-7fff-10fc-8e14-6760496dac3f&quot;&gt;&lt;span style=&quot;font-size: 12pt; font-family: &amp;quot;Times New Roman&amp;quot;, serif; background-color: transparent; font-variant-numeric: normal; font-variant-east-asian: normal; font-variant-alternates: normal; font-variant-position: normal; font-variant-emoji: normal; vertical-align: baseline; white-space-collapse: preserve;&quot;&gt;Schedule notification&lt;/span&gt;&lt;/span&gt;" style="rounded=0;whiteSpace=wrap;html=1;" vertex="1" parent="WIyWlLk6GJQsqaUBKTNV-1">
          <mxGeometry x="32" y="1268" width="273" height="60" as="geometry" />
        </mxCell>
        <mxCell id="QaPCqH7PHZVK6sP4nEyc-4" value="&lt;span id=&quot;docs-internal-guid-9d2fd4d1-7fff-10fc-8e14-6760496dac3f&quot;&gt;&lt;span style=&quot;font-size: 12pt; font-family: &amp;quot;Times New Roman&amp;quot;, serif; background-color: transparent; font-variant-numeric: normal; font-variant-east-asian: normal; font-variant-alternates: normal; font-variant-position: normal; font-variant-emoji: normal; vertical-align: baseline; white-space-collapse: preserve;&quot;&gt;View Park location in Google Maps&lt;/span&gt;&lt;/span&gt;" style="rounded=0;whiteSpace=wrap;html=1;" vertex="1" parent="WIyWlLk6GJQsqaUBKTNV-1">
          <mxGeometry x="32" y="1333" width="273" height="60" as="geometry" />
        </mxCell>
        <mxCell id="rQ5jN7HeV7pxCDGi3HHd-4" value="" style="edgeStyle=orthogonalEdgeStyle;rounded=0;orthogonalLoop=1;jettySize=auto;html=1;" edge="1" parent="WIyWlLk6GJQsqaUBKTNV-1" source="rQ5jN7HeV7pxCDGi3HHd-2" target="rQ5jN7HeV7pxCDGi3HHd-3">
          <mxGeometry relative="1" as="geometry" />
        </mxCell>
        <mxCell id="rQ5jN7HeV7pxCDGi3HHd-2" value="Navigate to Rating" style="rounded=0;whiteSpace=wrap;html=1;" vertex="1" parent="WIyWlLk6GJQsqaUBKTNV-1">
          <mxGeometry x="115.49722351074219" y="152.99713958740233" width="120" height="60" as="geometry" />
        </mxCell>
        <mxCell id="rQ5jN7HeV7pxCDGi3HHd-6" value="" style="edgeStyle=orthogonalEdgeStyle;rounded=0;orthogonalLoop=1;jettySize=auto;html=1;" edge="1" parent="WIyWlLk6GJQsqaUBKTNV-1" source="rQ5jN7HeV7pxCDGi3HHd-3" target="rQ5jN7HeV7pxCDGi3HHd-5">
          <mxGeometry relative="1" as="geometry" />
        </mxCell>
        <mxCell id="rQ5jN7HeV7pxCDGi3HHd-3" value="Click on &quot; + &quot; Icon" style="whiteSpace=wrap;html=1;rounded=0;" vertex="1" parent="WIyWlLk6GJQsqaUBKTNV-1">
          <mxGeometry x="115.49722351074217" y="292.99713958740233" width="120" height="60" as="geometry" />
        </mxCell>
        <mxCell id="rQ5jN7HeV7pxCDGi3HHd-8" value="" style="edgeStyle=orthogonalEdgeStyle;rounded=0;orthogonalLoop=1;jettySize=auto;html=1;" edge="1" parent="WIyWlLk6GJQsqaUBKTNV-1" source="rQ5jN7HeV7pxCDGi3HHd-5" target="rQ5jN7HeV7pxCDGi3HHd-7">
          <mxGeometry relative="1" as="geometry" />
        </mxCell>
        <mxCell id="rQ5jN7HeV7pxCDGi3HHd-5" value="Select / Deslect the Parks you interest to view Rating" style="whiteSpace=wrap;html=1;rounded=0;" vertex="1" parent="WIyWlLk6GJQsqaUBKTNV-1">
          <mxGeometry x="115.49722351074217" y="432.99713958740233" width="120" height="60" as="geometry" />
        </mxCell>
        <mxCell id="rQ5jN7HeV7pxCDGi3HHd-10" value="" style="edgeStyle=orthogonalEdgeStyle;rounded=0;orthogonalLoop=1;jettySize=auto;html=1;" edge="1" parent="WIyWlLk6GJQsqaUBKTNV-1" source="rQ5jN7HeV7pxCDGi3HHd-7" target="rQ5jN7HeV7pxCDGi3HHd-9">
          <mxGeometry relative="1" as="geometry" />
        </mxCell>
        <mxCell id="rQ5jN7HeV7pxCDGi3HHd-7" value="Click on &quot; X&quot; to close the pop out" style="whiteSpace=wrap;html=1;rounded=0;" vertex="1" parent="WIyWlLk6GJQsqaUBKTNV-1">
          <mxGeometry x="115.49722351074217" y="572.9971395874023" width="120" height="60" as="geometry" />
        </mxCell>
        <mxCell id="rQ5jN7HeV7pxCDGi3HHd-9" value="Park Rating is displayed on the Right side of each park" style="whiteSpace=wrap;html=1;rounded=0;" vertex="1" parent="WIyWlLk6GJQsqaUBKTNV-1">
          <mxGeometry x="115.49722351074217" y="712.9971395874023" width="120" height="60" as="geometry" />
        </mxCell>
        <mxCell id="rQ5jN7HeV7pxCDGi3HHd-14" value="" style="edgeStyle=orthogonalEdgeStyle;rounded=0;orthogonalLoop=1;jettySize=auto;html=1;" edge="1" parent="WIyWlLk6GJQsqaUBKTNV-1" source="rQ5jN7HeV7pxCDGi3HHd-11" target="rQ5jN7HeV7pxCDGi3HHd-13">
          <mxGeometry relative="1" as="geometry" />
        </mxCell>
        <mxCell id="rQ5jN7HeV7pxCDGi3HHd-11" value="Navigate to Rating Config" style="whiteSpace=wrap;html=1;rounded=0;" vertex="1" parent="WIyWlLk6GJQsqaUBKTNV-1">
          <mxGeometry x="501.5" y="171" width="120" height="60" as="geometry" />
        </mxCell>
        <mxCell id="rQ5jN7HeV7pxCDGi3HHd-16" value="" style="edgeStyle=orthogonalEdgeStyle;rounded=0;orthogonalLoop=1;jettySize=auto;html=1;" edge="1" parent="WIyWlLk6GJQsqaUBKTNV-1" source="rQ5jN7HeV7pxCDGi3HHd-13" target="rQ5jN7HeV7pxCDGi3HHd-15">
          <mxGeometry relative="1" as="geometry" />
        </mxCell>
        <mxCell id="rQ5jN7HeV7pxCDGi3HHd-18" value="" style="edgeStyle=orthogonalEdgeStyle;rounded=0;orthogonalLoop=1;jettySize=auto;html=1;" edge="1" parent="WIyWlLk6GJQsqaUBKTNV-1" source="rQ5jN7HeV7pxCDGi3HHd-13" target="rQ5jN7HeV7pxCDGi3HHd-17">
          <mxGeometry relative="1" as="geometry" />
        </mxCell>
        <mxCell id="rQ5jN7HeV7pxCDGi3HHd-20" value="" style="edgeStyle=orthogonalEdgeStyle;rounded=0;orthogonalLoop=1;jettySize=auto;html=1;" edge="1" parent="WIyWlLk6GJQsqaUBKTNV-1" source="rQ5jN7HeV7pxCDGi3HHd-13" target="rQ5jN7HeV7pxCDGi3HHd-19">
          <mxGeometry relative="1" as="geometry" />
        </mxCell>
        <mxCell id="rQ5jN7HeV7pxCDGi3HHd-13" value="Click on either one of the categories" style="whiteSpace=wrap;html=1;rounded=0;" vertex="1" parent="WIyWlLk6GJQsqaUBKTNV-1">
          <mxGeometry x="501.5" y="311" width="120" height="60" as="geometry" />
        </mxCell>
        <mxCell id="rQ5jN7HeV7pxCDGi3HHd-23" style="edgeStyle=orthogonalEdgeStyle;rounded=0;orthogonalLoop=1;jettySize=auto;html=1;exitX=0.5;exitY=1;exitDx=0;exitDy=0;entryX=0.5;entryY=0;entryDx=0;entryDy=0;" edge="1" parent="WIyWlLk6GJQsqaUBKTNV-1" source="rQ5jN7HeV7pxCDGi3HHd-15" target="rQ5jN7HeV7pxCDGi3HHd-21">
          <mxGeometry relative="1" as="geometry" />
        </mxCell>
        <mxCell id="rQ5jN7HeV7pxCDGi3HHd-15" value="WEATHER FORECAST" style="whiteSpace=wrap;html=1;rounded=0;" vertex="1" parent="WIyWlLk6GJQsqaUBKTNV-1">
          <mxGeometry x="370" y="435" width="120" height="60" as="geometry" />
        </mxCell>
        <mxCell id="rQ5jN7HeV7pxCDGi3HHd-22" value="" style="edgeStyle=orthogonalEdgeStyle;rounded=0;orthogonalLoop=1;jettySize=auto;html=1;" edge="1" parent="WIyWlLk6GJQsqaUBKTNV-1" source="rQ5jN7HeV7pxCDGi3HHd-17" target="rQ5jN7HeV7pxCDGi3HHd-21">
          <mxGeometry relative="1" as="geometry" />
        </mxCell>
        <mxCell id="rQ5jN7HeV7pxCDGi3HHd-17" value="PSI" style="whiteSpace=wrap;html=1;rounded=0;" vertex="1" parent="WIyWlLk6GJQsqaUBKTNV-1">
          <mxGeometry x="501.5" y="435" width="120" height="60" as="geometry" />
        </mxCell>
        <mxCell id="rQ5jN7HeV7pxCDGi3HHd-25" style="edgeStyle=orthogonalEdgeStyle;rounded=0;orthogonalLoop=1;jettySize=auto;html=1;exitX=0.5;exitY=1;exitDx=0;exitDy=0;" edge="1" parent="WIyWlLk6GJQsqaUBKTNV-1" source="rQ5jN7HeV7pxCDGi3HHd-19" target="rQ5jN7HeV7pxCDGi3HHd-21">
          <mxGeometry relative="1" as="geometry" />
        </mxCell>
        <mxCell id="rQ5jN7HeV7pxCDGi3HHd-19" value="UVI" style="whiteSpace=wrap;html=1;rounded=0;" vertex="1" parent="WIyWlLk6GJQsqaUBKTNV-1">
          <mxGeometry x="636" y="435" width="120" height="60" as="geometry" />
        </mxCell>
        <mxCell id="rQ5jN7HeV7pxCDGi3HHd-21" value="Drag the dot left/right to set the Rating for that Specific condition" style="whiteSpace=wrap;html=1;rounded=0;" vertex="1" parent="WIyWlLk6GJQsqaUBKTNV-1">
          <mxGeometry x="501.5" y="575" width="120" height="60" as="geometry" />
        </mxCell>
      </root>
    </mxGraphModel>
  </diagram>
  <diagram id="e3Rhk7es8liiirvJnSuh" name="rating">
    <mxGraphModel dx="891" dy="784" grid="1" gridSize="10" guides="1" tooltips="1" connect="1" arrows="1" fold="1" page="1" pageScale="1" pageWidth="1200" pageHeight="1600" math="0" shadow="0">
      <root>
        <mxCell id="0" />
        <mxCell id="1" parent="0" />
        <mxCell id="Yfk5o4rKPHazW8h-ajkP-1" value="&lt;span style=&quot;text-wrap-mode: nowrap;&quot;&gt;rating page remains same&lt;/span&gt;" style="rounded=0;whiteSpace=wrap;html=1;" vertex="1" parent="1">
          <mxGeometry x="410" y="570" width="160" height="60" as="geometry" />
        </mxCell>
        <mxCell id="Yfk5o4rKPHazW8h-ajkP-2" value="Refresh park ratings" style="rounded=0;whiteSpace=wrap;html=1;" vertex="1" parent="1">
          <mxGeometry x="490" y="250" width="160" height="60" as="geometry" />
        </mxCell>
        <mxCell id="Yfk5o4rKPHazW8h-ajkP-3" value="Reorganize park list" style="rounded=0;whiteSpace=wrap;html=1;" vertex="1" parent="1">
          <mxGeometry x="795" y="252" width="160" height="60" as="geometry" />
        </mxCell>
        <mxCell id="Yfk5o4rKPHazW8h-ajkP-4" value="No display" style="rounded=0;whiteSpace=wrap;html=1;" vertex="1" parent="1">
          <mxGeometry x="350" y="360" width="90" height="60" as="geometry" />
        </mxCell>
        <mxCell id="Yfk5o4rKPHazW8h-ajkP-5" value="display result of the selected park&amp;nbsp;&lt;span style=&quot;background-color: transparent; color: light-dark(rgb(0, 0, 0), rgb(255, 255, 255));&quot;&gt;(rating, forecast, PSI &amp;amp; UVI)&lt;/span&gt;" style="rounded=0;whiteSpace=wrap;html=1;" vertex="1" parent="1">
          <mxGeometry x="120" y="680" width="160" height="60" as="geometry" />
        </mxCell>
        <mxCell id="pHw-yXaRrEQ8us5UMYSO-1" style="edgeStyle=orthogonalEdgeStyle;rounded=0;orthogonalLoop=1;jettySize=auto;html=1;entryX=0.5;entryY=0;entryDx=0;entryDy=0;" edge="1" parent="1" source="Yfk5o4rKPHazW8h-ajkP-6" target="Yfk5o4rKPHazW8h-ajkP-5">
          <mxGeometry relative="1" as="geometry" />
        </mxCell>
        <mxCell id="Yfk5o4rKPHazW8h-ajkP-6" value="Apply rating threshold settings" style="rounded=0;whiteSpace=wrap;html=1;" vertex="1" parent="1">
          <mxGeometry x="120" y="570" width="160" height="60" as="geometry" />
        </mxCell>
        <mxCell id="Yfk5o4rKPHazW8h-ajkP-7" value="Select Parks to view rating" style="rounded=0;whiteSpace=wrap;html=1;" vertex="1" parent="1">
          <mxGeometry x="120" y="250" width="160" height="60" as="geometry" />
        </mxCell>
        <mxCell id="YOCZE2eZ9DZzpS9MVSAE-1" style="edgeStyle=orthogonalEdgeStyle;rounded=0;orthogonalLoop=1;jettySize=auto;html=1;entryX=0.5;entryY=0;entryDx=0;entryDy=0;" edge="1" parent="1" source="Yfk5o4rKPHazW8h-ajkP-8" target="Yfk5o4rKPHazW8h-ajkP-6">
          <mxGeometry relative="1" as="geometry" />
        </mxCell>
        <mxCell id="Yfk5o4rKPHazW8h-ajkP-8" value="Retrieve environmental data" style="rounded=0;whiteSpace=wrap;html=1;" vertex="1" parent="1">
          <mxGeometry x="120" y="460" width="160" height="60" as="geometry" />
        </mxCell>
        <mxCell id="Yfk5o4rKPHazW8h-ajkP-10" style="edgeStyle=orthogonalEdgeStyle;rounded=0;orthogonalLoop=1;jettySize=auto;html=1;" edge="1" parent="1" source="Yfk5o4rKPHazW8h-ajkP-9">
          <mxGeometry relative="1" as="geometry">
            <mxPoint x="350" y="390" as="targetPoint" />
            <Array as="points">
              <mxPoint x="350" y="390" />
            </Array>
          </mxGeometry>
        </mxCell>
        <mxCell id="Yfk5o4rKPHazW8h-ajkP-11" style="edgeStyle=orthogonalEdgeStyle;rounded=0;orthogonalLoop=1;jettySize=auto;html=1;exitX=0.5;exitY=1;exitDx=0;exitDy=0;exitPerimeter=0;entryX=0.5;entryY=0;entryDx=0;entryDy=0;" edge="1" parent="1" source="Yfk5o4rKPHazW8h-ajkP-9" target="Yfk5o4rKPHazW8h-ajkP-8">
          <mxGeometry relative="1" as="geometry">
            <mxPoint x="200" y="500" as="targetPoint" />
          </mxGeometry>
        </mxCell>
        <mxCell id="Yfk5o4rKPHazW8h-ajkP-9" value="Is park being selected?" style="strokeWidth=2;html=1;shape=mxgraph.flowchart.decision;whiteSpace=wrap;" vertex="1" parent="1">
          <mxGeometry x="120" y="360" width="160" height="60" as="geometry" />
        </mxCell>
        <mxCell id="YOCZE2eZ9DZzpS9MVSAE-2" style="edgeStyle=orthogonalEdgeStyle;rounded=0;orthogonalLoop=1;jettySize=auto;html=1;entryX=0.5;entryY=0;entryDx=0;entryDy=0;entryPerimeter=0;" edge="1" parent="1" source="Yfk5o4rKPHazW8h-ajkP-7" target="Yfk5o4rKPHazW8h-ajkP-9">
          <mxGeometry relative="1" as="geometry" />
        </mxCell>
        <mxCell id="YOCZE2eZ9DZzpS9MVSAE-3" value="True" style="text;html=1;align=center;verticalAlign=middle;resizable=0;points=[];autosize=1;strokeColor=none;fillColor=none;" vertex="1" parent="1">
          <mxGeometry x="195" y="418" width="50" height="30" as="geometry" />
        </mxCell>
        <mxCell id="YOCZE2eZ9DZzpS9MVSAE-4" value="False" style="text;html=1;align=center;verticalAlign=middle;resizable=0;points=[];autosize=1;strokeColor=none;fillColor=none;" vertex="1" parent="1">
          <mxGeometry x="290" y="360" width="50" height="30" as="geometry" />
        </mxCell>
        <mxCell id="pHw-yXaRrEQ8us5UMYSO-3" value="Test 1, 2" style="text;html=1;align=center;verticalAlign=middle;resizable=0;points=[];autosize=1;strokeColor=none;fillColor=none;" vertex="1" parent="1">
          <mxGeometry x="170" y="200" width="70" height="30" as="geometry" />
        </mxCell>
        <mxCell id="pHw-yXaRrEQ8us5UMYSO-11" value="" style="edgeStyle=orthogonalEdgeStyle;rounded=0;orthogonalLoop=1;jettySize=auto;html=1;" edge="1" parent="1" source="pHw-yXaRrEQ8us5UMYSO-9" target="pHw-yXaRrEQ8us5UMYSO-10">
          <mxGeometry relative="1" as="geometry" />
        </mxCell>
        <mxCell id="pHw-yXaRrEQ8us5UMYSO-13" value="" style="edgeStyle=orthogonalEdgeStyle;rounded=0;orthogonalLoop=1;jettySize=auto;html=1;" edge="1" parent="1" source="pHw-yXaRrEQ8us5UMYSO-9" target="pHw-yXaRrEQ8us5UMYSO-12">
          <mxGeometry relative="1" as="geometry" />
        </mxCell>
        <mxCell id="pHw-yXaRrEQ8us5UMYSO-9" value="If park is dragged into new position" style="strokeWidth=2;html=1;shape=mxgraph.flowchart.decision;whiteSpace=wrap;" vertex="1" parent="1">
          <mxGeometry x="750" y="362" width="250" height="60" as="geometry" />
        </mxCell>
        <mxCell id="pHw-yXaRrEQ8us5UMYSO-16" value="" style="edgeStyle=orthogonalEdgeStyle;rounded=0;orthogonalLoop=1;jettySize=auto;html=1;" edge="1" parent="1" source="pHw-yXaRrEQ8us5UMYSO-10" target="pHw-yXaRrEQ8us5UMYSO-15">
          <mxGeometry relative="1" as="geometry" />
        </mxCell>
        <mxCell id="pHw-yXaRrEQ8us5UMYSO-10" value="re-sort the park list&amp;nbsp;" style="whiteSpace=wrap;html=1;strokeWidth=2;" vertex="1" parent="1">
          <mxGeometry x="815" y="472" width="120" height="60" as="geometry" />
        </mxCell>
        <mxCell id="pHw-yXaRrEQ8us5UMYSO-12" value="No changes to the list" style="whiteSpace=wrap;html=1;strokeWidth=2;" vertex="1" parent="1">
          <mxGeometry x="1040" y="362" width="120" height="60" as="geometry" />
        </mxCell>
        <mxCell id="pHw-yXaRrEQ8us5UMYSO-14" style="edgeStyle=orthogonalEdgeStyle;rounded=0;orthogonalLoop=1;jettySize=auto;html=1;entryX=0.5;entryY=0;entryDx=0;entryDy=0;entryPerimeter=0;" edge="1" parent="1" source="Yfk5o4rKPHazW8h-ajkP-3" target="pHw-yXaRrEQ8us5UMYSO-9">
          <mxGeometry relative="1" as="geometry" />
        </mxCell>
        <mxCell id="pHw-yXaRrEQ8us5UMYSO-15" value="Display and save park list with new order" style="whiteSpace=wrap;html=1;strokeWidth=2;" vertex="1" parent="1">
          <mxGeometry x="815" y="592" width="120" height="60" as="geometry" />
        </mxCell>
        <mxCell id="pHw-yXaRrEQ8us5UMYSO-17" value="True" style="text;html=1;align=center;verticalAlign=middle;resizable=0;points=[];autosize=1;strokeColor=none;fillColor=none;" vertex="1" parent="1">
          <mxGeometry x="875" y="430" width="50" height="30" as="geometry" />
        </mxCell>
        <mxCell id="pHw-yXaRrEQ8us5UMYSO-18" value="False" style="text;html=1;align=center;verticalAlign=middle;resizable=0;points=[];autosize=1;strokeColor=none;fillColor=none;" vertex="1" parent="1">
          <mxGeometry x="990" y="362" width="50" height="30" as="geometry" />
        </mxCell>
        <mxCell id="pHw-yXaRrEQ8us5UMYSO-19" value="Test 3" style="text;html=1;align=center;verticalAlign=middle;resizable=0;points=[];autosize=1;strokeColor=none;fillColor=none;" vertex="1" parent="1">
          <mxGeometry x="840" y="200" width="60" height="30" as="geometry" />
        </mxCell>
        <mxCell id="pHw-yXaRrEQ8us5UMYSO-25" style="edgeStyle=orthogonalEdgeStyle;rounded=0;orthogonalLoop=1;jettySize=auto;html=1;exitX=0.5;exitY=1;exitDx=0;exitDy=0;exitPerimeter=0;entryX=1;entryY=0.5;entryDx=0;entryDy=0;" edge="1" parent="1" source="pHw-yXaRrEQ8us5UMYSO-22" target="Yfk5o4rKPHazW8h-ajkP-8">
          <mxGeometry relative="1" as="geometry" />
        </mxCell>
        <mxCell id="pHw-yXaRrEQ8us5UMYSO-36" style="edgeStyle=orthogonalEdgeStyle;rounded=0;orthogonalLoop=1;jettySize=auto;html=1;exitX=1;exitY=0.5;exitDx=0;exitDy=0;exitPerimeter=0;entryX=1;entryY=0.5;entryDx=0;entryDy=0;" edge="1" parent="1" source="pHw-yXaRrEQ8us5UMYSO-22" target="Yfk5o4rKPHazW8h-ajkP-1">
          <mxGeometry relative="1" as="geometry" />
        </mxCell>
        <mxCell id="pHw-yXaRrEQ8us5UMYSO-22" value="If user re-enter the rating page" style="strokeWidth=2;html=1;shape=mxgraph.flowchart.decision;whiteSpace=wrap;" vertex="1" parent="1">
          <mxGeometry x="470" y="358" width="200" height="60" as="geometry" />
        </mxCell>
        <mxCell id="pHw-yXaRrEQ8us5UMYSO-27" style="edgeStyle=orthogonalEdgeStyle;rounded=0;orthogonalLoop=1;jettySize=auto;html=1;entryX=0.5;entryY=0;entryDx=0;entryDy=0;entryPerimeter=0;" edge="1" parent="1" source="Yfk5o4rKPHazW8h-ajkP-2" target="pHw-yXaRrEQ8us5UMYSO-22">
          <mxGeometry relative="1" as="geometry" />
        </mxCell>
        <mxCell id="pHw-yXaRrEQ8us5UMYSO-28" value="True" style="text;html=1;align=center;verticalAlign=middle;resizable=0;points=[];autosize=1;strokeColor=none;fillColor=none;" vertex="1" parent="1">
          <mxGeometry x="570" y="422" width="50" height="30" as="geometry" />
        </mxCell>
        <mxCell id="pHw-yXaRrEQ8us5UMYSO-37" value="False" style="text;html=1;align=center;verticalAlign=middle;resizable=0;points=[];autosize=1;strokeColor=none;fillColor=none;" vertex="1" parent="1">
          <mxGeometry x="640" y="392" width="50" height="30" as="geometry" />
        </mxCell>
        <mxCell id="pHw-yXaRrEQ8us5UMYSO-38" value="Test 4" style="text;html=1;align=center;verticalAlign=middle;resizable=0;points=[];autosize=1;strokeColor=none;fillColor=none;" vertex="1" parent="1">
          <mxGeometry x="520" y="208" width="60" height="30" as="geometry" />
        </mxCell>
      </root>
    </mxGraphModel>
  </diagram>
  <diagram id="FF1Trz_6I2DQ6eYJ_OkI" name="rating config">
    <mxGraphModel dx="891" dy="784" grid="1" gridSize="10" guides="1" tooltips="1" connect="1" arrows="1" fold="1" page="1" pageScale="1" pageWidth="1200" pageHeight="1600" math="0" shadow="0">
      <root>
        <mxCell id="0" />
        <mxCell id="1" parent="0" />
        <mxCell id="bopXSOPMT_sDhWh6_qsF-7" value="" style="edgeStyle=orthogonalEdgeStyle;rounded=0;orthogonalLoop=1;jettySize=auto;html=1;" edge="1" parent="1" source="bopXSOPMT_sDhWh6_qsF-3" target="bopXSOPMT_sDhWh6_qsF-6">
          <mxGeometry relative="1" as="geometry" />
        </mxCell>
        <mxCell id="bopXSOPMT_sDhWh6_qsF-3" value="Rating configuration" style="whiteSpace=wrap;html=1;" vertex="1" parent="1">
          <mxGeometry x="210" y="120" width="120" height="60" as="geometry" />
        </mxCell>
        <mxCell id="iL_ldVjaMmgBSM7lc2zX-2" value="" style="edgeStyle=orthogonalEdgeStyle;rounded=0;orthogonalLoop=1;jettySize=auto;html=1;entryX=0;entryY=0.5;entryDx=0;entryDy=0;" edge="1" parent="1" source="bopXSOPMT_sDhWh6_qsF-6" target="iL_ldVjaMmgBSM7lc2zX-1">
          <mxGeometry relative="1" as="geometry" />
        </mxCell>
        <mxCell id="eUlXxzmCQslY-Ti_rMSY-2" value="" style="edgeStyle=orthogonalEdgeStyle;rounded=0;orthogonalLoop=1;jettySize=auto;html=1;" edge="1" parent="1" source="bopXSOPMT_sDhWh6_qsF-6" target="eUlXxzmCQslY-Ti_rMSY-1">
          <mxGeometry relative="1" as="geometry" />
        </mxCell>
        <mxCell id="bopXSOPMT_sDhWh6_qsF-6" value="If any rating threshold values are modified" style="rhombus;whiteSpace=wrap;html=1;" vertex="1" parent="1">
          <mxGeometry x="130" y="240" width="280" height="60" as="geometry" />
        </mxCell>
        <mxCell id="iL_ldVjaMmgBSM7lc2zX-1" value="Save the new threshold settings" style="whiteSpace=wrap;html=1;" vertex="1" parent="1">
          <mxGeometry x="400" y="350" width="120" height="60" as="geometry" />
        </mxCell>
        <mxCell id="eUlXxzmCQslY-Ti_rMSY-1" value="Threshold remains unchanged" style="whiteSpace=wrap;html=1;" vertex="1" parent="1">
          <mxGeometry x="460" y="240" width="120" height="60" as="geometry" />
        </mxCell>
        <mxCell id="1D29n8yMWPU2xMejXA5z-3" value="" style="edgeStyle=orthogonalEdgeStyle;rounded=0;orthogonalLoop=1;jettySize=auto;html=1;" edge="1" parent="1" source="1D29n8yMWPU2xMejXA5z-1" target="1D29n8yMWPU2xMejXA5z-2">
          <mxGeometry relative="1" as="geometry" />
        </mxCell>
        <mxCell id="1D29n8yMWPU2xMejXA5z-6" style="edgeStyle=orthogonalEdgeStyle;rounded=0;orthogonalLoop=1;jettySize=auto;html=1;entryX=1;entryY=0.5;entryDx=0;entryDy=0;" edge="1" parent="1" source="1D29n8yMWPU2xMejXA5z-1" target="eUlXxzmCQslY-Ti_rMSY-1">
          <mxGeometry relative="1" as="geometry" />
        </mxCell>
        <mxCell id="1D29n8yMWPU2xMejXA5z-1" value="If &#39;reset to default&#39; is clicked" style="rhombus;whiteSpace=wrap;html=1;" vertex="1" parent="1">
          <mxGeometry x="620" y="245" width="220" height="50" as="geometry" />
        </mxCell>
        <mxCell id="1D29n8yMWPU2xMejXA5z-8" style="edgeStyle=orthogonalEdgeStyle;rounded=0;orthogonalLoop=1;jettySize=auto;html=1;entryX=1;entryY=0.5;entryDx=0;entryDy=0;" edge="1" parent="1" source="1D29n8yMWPU2xMejXA5z-2" target="iL_ldVjaMmgBSM7lc2zX-1">
          <mxGeometry relative="1" as="geometry" />
        </mxCell>
        <mxCell id="1D29n8yMWPU2xMejXA5z-2" value="Reset all threshold values to default" style="whiteSpace=wrap;html=1;" vertex="1" parent="1">
          <mxGeometry x="670" y="350" width="120" height="60" as="geometry" />
        </mxCell>
        <mxCell id="1D29n8yMWPU2xMejXA5z-5" style="edgeStyle=orthogonalEdgeStyle;rounded=0;orthogonalLoop=1;jettySize=auto;html=1;entryX=0.5;entryY=0;entryDx=0;entryDy=0;" edge="1" parent="1" source="1D29n8yMWPU2xMejXA5z-4" target="1D29n8yMWPU2xMejXA5z-1">
          <mxGeometry relative="1" as="geometry" />
        </mxCell>
        <mxCell id="1D29n8yMWPU2xMejXA5z-4" value="Rating reset" style="whiteSpace=wrap;html=1;" vertex="1" parent="1">
          <mxGeometry x="670" y="120" width="120" height="60" as="geometry" />
        </mxCell>
        <mxCell id="NzdcCo16OZVduwX-Y7gk-1" value="True" style="text;html=1;align=center;verticalAlign=middle;resizable=0;points=[];autosize=1;strokeColor=none;fillColor=none;" vertex="1" parent="1">
          <mxGeometry x="725" y="308" width="50" height="30" as="geometry" />
        </mxCell>
        <mxCell id="NzdcCo16OZVduwX-Y7gk-2" value="False" style="text;html=1;align=center;verticalAlign=middle;resizable=0;points=[];autosize=1;strokeColor=none;fillColor=none;" vertex="1" parent="1">
          <mxGeometry x="575" y="238" width="50" height="30" as="geometry" />
        </mxCell>
        <mxCell id="NzdcCo16OZVduwX-Y7gk-3" value="False" style="text;html=1;align=center;verticalAlign=middle;resizable=0;points=[];autosize=1;strokeColor=none;fillColor=none;" vertex="1" parent="1">
          <mxGeometry x="400" y="240" width="50" height="30" as="geometry" />
        </mxCell>
        <mxCell id="NzdcCo16OZVduwX-Y7gk-4" value="True" style="text;html=1;align=center;verticalAlign=middle;resizable=0;points=[];autosize=1;strokeColor=none;fillColor=none;" vertex="1" parent="1">
          <mxGeometry x="260" y="308" width="50" height="30" as="geometry" />
        </mxCell>
        <mxCell id="NzdcCo16OZVduwX-Y7gk-5" value="Test 2, 3, 4" style="text;html=1;align=center;verticalAlign=middle;resizable=0;points=[];autosize=1;strokeColor=none;fillColor=none;" vertex="1" parent="1">
          <mxGeometry x="230" y="70" width="80" height="30" as="geometry" />
        </mxCell>
        <mxCell id="NzdcCo16OZVduwX-Y7gk-6" value="Test 1" style="text;html=1;align=center;verticalAlign=middle;resizable=0;points=[];autosize=1;strokeColor=none;fillColor=none;" vertex="1" parent="1">
          <mxGeometry x="690" y="78" width="60" height="30" as="geometry" />
        </mxCell>
      </root>
    </mxGraphModel>
  </diagram>
</mxfile>
